<svg xmlns="http://www.w3.org/2000/svg" viewBox="0 0 1024 1024" width="1024" height="1024">
	<defs>
	</defs>
	<g transform="matrix(1,0,0,1,0,0)">
		<g>
			<g transform="matrix(1,0,0,1,512,512)">
				<path
					d="M-172,-512
     		        L172,-512
     				Q512,-512 512,-172
     				L512,172
     				Q512,512 172,512
     				L-172,512
     				Q-512,512 -512,172
     				L-512,-172
     				Q-512,-512 -172,-512
     				Z"
					fill="#00a2fb" />
			</g>
			<g transform="matrix(1,0,0,1,512,512)">
				<g transform="matrix(1.618733877,0,0,1.618733877,1.838751706,33.480292523)">
					<g>
						<path
							d="M83.5,-290.5 C15.58001708984375,-270.92999267578125 -30.6300048828125,-179.3699951171875 4.20001220703125,-117.19000244140625 C39.02001953125,-55.019989013671875 103.08001708984375,-25.70001220703125 118.719970703125,46.280029296875 C134.3599853515625,118.260009765625 75.8699951171875,189.91998291015625 6.5,205.5 C-13.790008544921875,148.5 45.09002685546875,111.6099853515625 55.57000732421875,59.57000732421875 C66.04998779296875,7.53997802734375 26.6099853515625,-43.209991455078125 -17.5,-67.5 C3.6500244140625,-35.730010986328125 -7.010009765625,5.6199951171875 -26.25,34.75 C-45.480010986328125,63.8900146484375 -65.01998901367188,91.20001220703125 -69.72000122070313,126.280029296875 C-74.42001342773438,161.3599853515625 -58.79998779296875,198.34002685546875 -29.5,218.5 C-64.76998901367188,216.25 -98.489990234375,199.739990234375 -124.75,173.75 C-151.010009765625,147.75 -166.739990234375,113.739990234375 -170.51998901367188,77.52001953125 C-174.29998779296875,41.30999755859375 -206.83999633789063,11.29998779296875 -242.5,7.5 C-245.739990234375,21.78997802734375 -242.35000610351563,39.1199951171875 -236.42001342773438,51.41998291015625 C-230.5,63.72998046875 -222.92999267578125,71.239990234375 -212.19000244140625,79.20001220703125 C-201.45999145507813,87.1500244140625 -182.79998779296875,85.739990234375 -180.42999267578125,99.42999267578125 C-178.04998779296875,113.1099853515625 -172.1400146484375,124.75 -166.80999755859375,136.80999755859375 C-161.47000122070313,148.8599853515625 -154.45999145507813,158.29998779296875 -146.42001342773438,168.41998291015625 C-138.3699951171875,178.53997802734375 -130.57000732421875,186.510009765625 -120.25,194.25 C-109.94000244140625,201.989990234375 -101.60000610351563,208.9000244140625 -89.57998657226563,214.58001708984375 C-77.54998779296875,220.25 -65.85000610351563,225.6099853515625 -52.519989013671875,229.52001953125 C-39.19000244140625,233.42999267578125 -23.3599853515625,236.6400146484375 -8.720001220703125,237.719970703125 C5.91998291015625,238.79998779296875 24.030029296875,240.1099853515625 38.47998046875,238.47998046875 C52.91998291015625,236.84002685546875 67.80999755859375,233.6199951171875 81.280029296875,230.280029296875 C94.75,226.94000244140625 107.04998779296875,221.52001953125 119.27001953125,216.27001953125 C131.489990234375,211.030029296875 141.27001953125,204.30999755859375 151.79998779296875,196.79998779296875 C162.33001708984375,189.29998779296875 170.22998046875,182.530029296875 178.75,172.75 C187.27001953125,162.96002197265625 194.70001220703125,154.739990234375 201.20001220703125,143.20001220703125 C207.69000244140625,131.6500244140625 212.510009765625,119.70001220703125 216.57000732421875,106.57000732421875 C220.6400146484375,93.45001220703125 223.489990234375,78.010009765625 224.5,63.5 C225.52001953125,48.989990234375 225.239990234375,29.53997802734375 222.42999267578125,15.57000732421875 C219.6199951171875,1.6099853515625 215.34002685546875,-11.519989013671875 209.80999755859375,-23.79998779296875 C204.27001953125,-36.089996337890625 198.3800048828125,-46.410003662109375 190.79998779296875,-56.79998779296875 C183.22998046875,-67.19000244140625 176.8900146484375,-75.94000244140625 168.25,-85.25 C159.6099853515625,-94.55999755859375 152.33001708984375,-103.29000854492188 143.25,-112.25 C134.17999267578125,-121.22000122070313 126.8800048828125,-129.79000854492188 118.25,-139.25 C109.6199951171875,-148.70999145507813 103.469970703125,-157.29000854492188 96.27001953125,-168.26998901367188 C89.07000732421875,-179.25 84.08001708984375,-190.73001098632813 79.80999755859375,-203.80999755859375 C75.530029296875,-216.8800048828125 72.71002197265625,-234.05999755859375 74.5,-248.5 C76.28997802734375,-262.94000244140625 77.719970703125,-277.22999572753906 83.5,-290.5 C83.5,-290.5 83.5,-290.5 83.5,-290.5 Z"
							fill="#f6c144" />
					</g>
				</g>
				<g transform="matrix(1.618733877,0,0,1.618733877,1.838751706,33.480292523)">
					<g>
						<path
							d="M-89.5,-237.5 C-130.57998657226563,-224.57998657226563 -155.02999877929688,-173.83999633789063 -135.5,-134.5 C-96.04998779296875,-150.5 -77.52999877929688,-197.42999267578125 -89.5,-237.5 C-89.5,-237.5 -89.5,-237.5 -89.5,-237.5 Z"
							fill="#f6c144" />
					</g>
				</g>
				<g transform="matrix(1.618733877,0,0,1.618733877,1.838751706,33.480292523)">
					<g>
						<path
							d="M-163.5,-68.5 C-147.489990234375,-105.57998657226563 -155.51998901367188,-154.67001342773438 -192.5,-176.5 C-215.23001098632813,-140.82998657226563 -202.98001098632813,-87.07000732421875 -163.5,-68.5 C-163.5,-68.5 -163.5,-68.5 -163.5,-68.5 Z"
							fill="#f6c144" />
					</g>
				</g>
				<g transform="matrix(1.618733877,0,0,1.618733877,1.838751706,33.480292523)">
					<g>
						<path
							d="M-62.5,-137.5 C-104.489990234375,-139.58999633789063 -145.55999755859375,-103.260009765625 -144.5,-60.5 C-101.489990234375,-58.579986572265625 -63.6199951171875,-94.92999267578125 -62.5,-137.5 C-62.5,-137.5 -62.5,-137.5 -62.5,-137.5 Z"
							fill="#f6c144" />
					</g>
				</g>
				<g transform="matrix(1.618733877,0,0,1.618733877,1.838751706,33.480292523)">
					<g>
						<path
							d="M-175.5,11.5 C-166.489990234375,-28.42999267578125 -188.8800048828125,-74.510009765625 -230.5,-83.5 C-243.6400146484375,-43.459991455078125 -217.3599853515625,3.97998046875 -175.5,11.5 C-175.5,11.5 -175.5,11.5 -175.5,11.5 Z"
							fill="#f6c144" />
					</g>
				</g>
				<g transform="matrix(1.618733877,0,0,1.618733877,1.838751706,33.480292523)">
					<g>
						<path
							d="M-80.5,-55.5 C-119.739990234375,-52.92999267578125 -158.94000244140625,-19.29998779296875 -156.5,22.5 C-113.760009765625,28.3499755859375 -77.3800048828125,-14.04998779296875 -80.5,-55.5 C-80.5,-55.5 -80.5,-55.5 -80.5,-55.5 Z"
							fill="#f6c144" />
					</g>
				</g>
				<g transform="matrix(1.618733877,0,0,1.618733877,1.838751706,33.480292523)">
					<g>
						<path
							d="M-86.5,24.5 C-127.95999145507813,26.54998779296875 -165.29000854492188,69.3900146484375 -152.5,111.5 C-112.89999389648438,104.3499755859375 -82.760009765625,65.09002685546875 -86.5,24.5 C-86.5,24.5 -86.5,24.5 -86.5,24.5 Z"
							fill="#f6c144" />
					</g>
				</g>
			</g>
		</g>
	</g>
</svg>