<!--?xml version="1.0" encoding="utf-8"?-->
<!-- Generator: Adobe Illustrator 18.1.1, SVG Export Plug-In . SVG Version: 6.00 Build 0)  -->

<svg version="1.1" id="_x32_" xmlns="http://www.w3.org/2000/svg" xmlns:xlink="http://www.w3.org/1999/xlink" x="0px" y="0px" viewBox="0 0 512 512" style="width: 256px; height: 256px; opacity: 1;" xml:space="preserve">
<style type="text/css">
	.st0{fill:#4B4B4B;}
</style>
<g>
	<path class="st0" d="M510.894,326.924c-4.619-51.232-22.532-104.914-44.425-149.824l-8.919,4.357l8.909-4.357
		c-10.961-22.465-22.949-42.682-34.994-59.347c-9.247-12.734-18.446-23.346-27.771-31.421l0.552-0.668l-8.85-5.878l-1.094-0.91
		c-0.726-0.62-1.656-1.394-2.691-2.227l-0.068-0.058c-3.65-2.904-9.276-7.068-16.586-10.399c-7.282-3.312-16.451-5.791-26.812-4.929
		l-0.059,0.01c-5.722,0.504-11.6,2.17-17.342,4.988l-0.154,0.009l-1.734,0.891l-0.232,0.096l-9.131,4.862l-0.039,0.028l-0.242,0.126
		c-11.096,6.197-19.599,14.35-24.934,23.849l0.02-0.02c-5.374,9.499-7.32,20.034-6.41,30.114c0.349,3.826,1.182,7.544,2.257,11.155
		L14.732,311.984c-6.256,3.96-10.313,9.76-12.433,15.647c-2.072,5.732-2.509,11.465-2.218,16.655
		c0.175,3.176,0.378,7.107,0.746,11.271c0.552,5.916,1.318,12.297,3.177,18.436v0.029c0.929,2.973,2.236,6.372,4.58,9.654
		c1.317,1.84,3.002,3.661,5.257,5.229c2.237,1.549,5.094,2.808,8.357,3.234l0.01,0.019c0.823,0.116,109.997,14.95,220.674,29.679
		c55.512,7.388,111.392,14.747,154.123,20.208c21.36,2.711,39.438,4.976,52.598,6.516c6.584,0.784,11.939,1.376,15.909,1.772
		c1.946,0.194,3.602,0.349,5.045,0.445l0.629,0.039l-0.542-0.039c0.988,0.058,2.439,0.213,4.386,0.077l0.475-0.038l1.201-0.194
		l0.658-0.106l1.51-0.475l0.62-0.184l0.601-0.282c0.106-0.038,1.036-0.425,1.995-1.065c1.006-0.638,2.033-1.501,2.924-2.44
		l0.165-0.184l0.396-0.465l0.213-0.252l0.397-0.552l0.359-0.504l-0.32,0.446C509.248,411.872,514.69,369.868,510.894,326.924z
		 M293.078,302.688c4.87,3.282,8.404,8.404,8.936,14.485c0.552,6.081-2.014,11.746-6.226,15.842
		c-4.222,4.135-10.119,6.856-16.771,7.456c-6.652,0.591-12.936-1.045-17.807-4.357c-4.88-3.293-8.405-8.424-8.938-14.486
		c-0.552-6.08,2.014-11.755,6.226-15.851c4.222-4.115,10.1-6.846,16.752-7.436C281.913,297.749,288.197,299.386,293.078,302.688z
		 M241.022,203.864c3.679-3.602,8.821-5.984,14.592-6.488c5.79-0.514,11.262,0.9,15.522,3.806c4.26,2.865,7.378,7.368,7.853,12.733
		c0.474,5.354-1.773,10.34-5.461,13.923c-3.69,3.612-8.822,6.004-14.612,6.518c-5.771,0.504-11.251-0.92-15.521-3.825
		c-4.261-2.866-7.369-7.378-7.843-12.732C235.067,212.443,237.333,207.456,241.022,203.864z M201.699,262.92l15.155,22.581
		l-20.054,5.887l-11.63-19.579l-1.674-2.808L201.699,262.92z M94.16,290.652c4.039-3.941,9.674-6.545,16.025-7.117
		c6.353-0.571,12.356,1.008,17.014,4.164c4.657,3.146,8.036,8.065,8.55,13.894c0.532,5.81-1.928,11.252-5.945,15.164
		c-4.038,3.931-9.664,6.546-16.016,7.127c-6.352,0.561-12.366-1.008-17.023-4.174c-4.657-3.147-8.036-8.056-8.55-13.875
		C87.693,300.015,90.143,294.583,94.16,290.652z M470.119,430.851c-0.406-0.039-0.929-0.097-1.365-0.136
		c-0.425-0.039-0.794-0.068-1.278-0.116c-3.796-0.388-9.044-0.969-15.56-1.724c-12.743-1.491-30.347-3.698-51.088-6.332
		c-1.878-0.233-3.834-0.485-5.77-0.737c-3.196-0.406-6.41-0.823-9.741-1.258c-2.005-0.242-4.058-0.523-6.11-0.774
		c-4.522-0.581-9.054-1.172-13.76-1.792c-0.126-0.019-0.242-0.028-0.359-0.028c-36.262-4.726-78.024-10.255-119.594-15.783
		c-99.24-13.208-197.328-26.512-216.975-29.165c-1.946-0.272-3.263-0.455-3.476-0.485l-0.068-0.077
		c-0.068-0.058-0.146-0.135-0.272-0.3c-0.232-0.329-0.484-0.794-0.726-1.298c-0.358-0.726-0.707-1.617-1.016-2.672
		c-0.523-1.714-0.949-3.787-1.308-5.994c-0.087-0.465-0.165-0.968-0.242-1.491c-0.329-2.208-0.62-4.531-0.833-6.904
		c-0.329-3.728-0.532-7.416-0.697-10.564c-0.058-0.91,0.068-1.724,0.107-2.596l385.893,45.297l4.115,0.368l1.54-4.57l0.9-2.034
		c4.135-8.076,13.625-14.273,24.44-15.202c9.15-0.784,18.959,1.936,27.403,10.148c3.979,3.709,7.068,12.859,7.939,23.587
		C473.199,408.997,472.212,421.091,470.119,430.851z M306.226,275.576l1.482-13.798l0.329-3.031l39.236,0.871l-2.517,17.691
		L306.226,275.576z M485.544,400.437c-0.891,2.972-1.879,5.868-2.972,8.714c-0.039,0.126-0.077,0.261-0.126,0.397
		c0.068-4.115,0.01-8.211-0.349-12.22c-1.142-11.833-3.902-22.774-10.893-29.784c-10.458-10.244-23.433-14.021-35.207-12.936
		c-9.596,0.872-18.543,4.822-25.146,11.019c-7.31-63.288-25.902-114.568-45.558-152.292c-10.468-20.064-21.187-36.35-30.599-48.706
		c-8.956-11.735-16.577-19.743-22.029-24.362c-1.152-2.12-2.014-4.299-2.788-6.468c-0.233-0.658-0.514-1.298-0.707-1.936
		c-0.746-2.47-1.307-4.949-1.53-7.408c-0.145-1.617-0.165-3.215-0.088-4.793c0.029-0.388,0.116-0.774,0.155-1.162
		c0.097-1.181,0.213-2.382,0.446-3.564c0.639-3.099,1.762-6.158,3.418-9.101l0.01-0.01c1.646-2.934,3.863-5.8,6.72-8.54
		c2.837-2.722,6.313-5.297,10.515-7.65l6.643-3.535l0.813-0.425l0.088-0.01l1.762-0.959c0.91-0.504,1.772-0.756,2.664-1.142
		c3.127-1.356,6.177-2.286,9.034-2.538c0.077-0.01,0.155,0,0.223,0c1.752-0.154,3.466-0.077,5.151,0.078
		c0.62,0.058,1.22,0.154,1.82,0.252c1.288,0.203,2.546,0.465,3.777,0.794c0.445,0.126,0.89,0.223,1.326,0.358
		c1.656,0.532,3.263,1.133,4.793,1.83c2.286,1.046,4.387,2.266,6.304,3.505c0.474,0.3,0.92,0.601,1.356,0.9
		c0.29,0.184,0.513,0.378,0.784,0.571l-0.455,0.542l9.064,6.178c4.609,3.089,9.664,7.553,14.95,13.169
		c5.316,5.636,10.883,12.433,16.49,20.18c0.222,0.319,0.445,0.667,0.677,0.978c2.324,3.243,4.658,6.652,6.991,10.206
		c0.678,1.036,1.366,2.111,2.044,3.166c2.004,3.147,4.028,6.392,6.033,9.741c0.6,1.008,1.21,2.015,1.81,3.041
		c5.102,8.714,10.118,18.059,14.95,27.848c0.648,1.317,1.278,2.654,1.916,3.97c1.743,3.621,3.448,7.31,5.132,11.038
		c0.727,1.616,1.452,3.215,2.178,4.851c2.015,4.61,3.98,9.277,5.878,14.011c0.349,0.872,0.697,1.762,1.046,2.644
		c1.878,4.754,3.67,9.566,5.403,14.418c0.62,1.743,1.221,3.505,1.83,5.268c1.336,3.883,2.624,7.785,3.863,11.716
		c0.514,1.656,1.046,3.312,1.55,4.976c3.331,11.039,6.216,22.194,8.579,33.31c0.3,1.434,0.571,2.847,0.853,4.28
		c0.862,4.318,1.636,8.628,2.323,12.917c0.233,1.481,0.475,2.944,0.697,4.415c0.804,5.539,1.502,11.058,1.985,16.509
		c0.408,4.484,0.65,8.899,0.823,13.276c0.049,1.394,0.068,2.769,0.097,4.173c0.068,3.031,0.059,6.042,0,9.015
		c-0.029,1.548-0.038,3.078-0.106,4.608c-0.146,3.718-0.398,7.379-0.746,11c-0.194,1.898-0.455,3.757-0.697,5.616
		c-0.29,2.247-0.601,4.484-0.978,6.681c-0.339,2.034-0.746,4.047-1.171,6.042c-0.359,1.782-0.794,3.515-1.22,5.248
		C486.629,396.38,486.136,398.442,485.544,400.437z" style="fill: rgb(75, 75, 75);"></path>
</g>
</svg>
