<!--?xml version="1.0" encoding="utf-8"?-->
<!-- Generator: Adobe Illustrator 15.1.0, SVG Export Plug-In . SVG Version: 6.00 Build 0)  -->

<svg version="1.1" id="_x32_" xmlns="http://www.w3.org/2000/svg" xmlns:xlink="http://www.w3.org/1999/xlink" x="0px" y="0px" width="512px" height="512px" viewBox="0 0 512 512" style="width: 256px; height: 256px; opacity: 1;" xml:space="preserve">
<style type="text/css">

	.st0{fill:#4B4B4B;}

</style>
<g>
	<polygon class="st0" points="30.922,460.156 481.094,460.156 481.094,421.969 30.922,431 	" style="fill: rgb(75, 75, 75);"></polygon>
	<polygon class="st0" points="30.922,499.641 481.094,508.688 481.094,470.484 30.922,470.484 	" style="fill: rgb(75, 75, 75);"></polygon>
	<path class="st0" d="M153.094,340.672v22.016c0,22.844,46.078,41.375,102.906,41.375s102.906-18.531,102.906-41.375v-22.016
		C449.047,301.063,512,211,512,106.219C512,49.391,397.391,3.313,256,3.313C114.625,3.313,0,49.391,0,106.219
		C0,211,62.969,301.063,153.094,340.672z M41.828,106.219c0-2.234,8.984-17.984,48.75-33.953
		C133.469,55.031,193.75,45.141,256,45.141s122.531,9.891,165.438,27.125c39.75,15.969,48.734,31.719,48.734,33.953
		s-8.984,17.969-48.734,33.953C378.531,157.406,318.25,167.297,256,167.297s-122.531-9.891-165.422-27.125
		C50.813,124.188,41.828,108.453,41.828,106.219z" style="fill: rgb(75, 75, 75);"></path>
</g>
</svg>
